<svg width="512" height="512" viewBox="0 0 512 512" fill="none" xmlns="http://www.w3.org/2000/svg">
<rect width="512" height="512" rx="256" fill="#3C6BD0"/>
<path d="M133.516 265.472C131.449 271.931 125.764 278.389 115.857 278.389C104.573 278.389 96.0448 269.778 96.0448 256C96.0448 242.222 104.573 233.611 115.857 233.611C123.524 233.611 130.501 237.917 133.516 246.097H142.992C140.494 235.333 130.932 225 115.857 225C100.007 225 87 237.486 87 256C87 274.514 100.007 287 115.857 287C132.138 287 140.925 274.944 142.992 265.472H133.516Z" fill="white"/>
<path d="M178.781 287C194.631 287 207.638 274.514 207.638 256C207.638 237.486 194.631 225 178.781 225C162.931 225 149.924 237.486 149.924 256C149.924 274.514 162.931 287 178.781 287ZM178.781 233.611C190.065 233.611 198.593 242.222 198.593 256C198.593 269.778 190.065 278.389 178.781 278.389C167.496 278.389 158.968 269.778 158.968 256C158.968 242.222 167.496 233.611 178.781 233.611Z" fill="white"/>
<path d="M217.955 286.139H256.288V277.528H227V225.861H217.955V286.139Z" fill="white"/>
<path d="M287.299 287C303.149 287 316.156 274.514 316.156 256C316.156 237.486 303.149 225 287.299 225C271.449 225 258.442 237.486 258.442 256C258.442 274.514 271.449 287 287.299 287ZM287.299 233.611C298.583 233.611 307.111 242.222 307.111 256C307.111 269.778 298.583 278.389 287.299 278.389C276.014 278.389 267.486 269.778 267.486 256C267.486 242.222 276.014 233.611 287.299 233.611Z" fill="white"/>
<path d="M326.473 286.139H335.518V264.611H339.825L361.36 286.139H372.989L351.454 264.611H353.608C363.514 264.611 371.267 256.947 371.267 245.236C371.267 233.525 363.514 225.861 353.608 225.861L326.473 225.861V286.139ZM335.518 256V234.472L353.177 234.472C358.001 234.472 362.222 238.778 362.222 245.236C362.222 251.694 358.001 256 353.177 256H335.518Z" fill="white"/>
<path d="M379.484 267.625C379.484 278.389 388.098 287 403.173 287C418.247 287 426 279.25 426 269.347C426 259.789 420.487 254.708 408.341 252.556L398.865 250.833C392.319 249.542 389.821 246.528 389.821 242.653C389.821 237.831 394.128 233.611 402.311 233.611C410.925 233.611 416.094 238.778 416.094 244.375H425.139C425.139 233.611 417.386 225 402.311 225C388.959 225 380.776 232.75 380.776 242.653C380.776 250.919 385.427 256.861 394.989 258.583L406.618 260.736C413.509 262.028 416.955 264.956 416.955 269.347C416.955 274.514 413.079 278.389 403.173 278.389C394.214 278.389 388.528 273.222 388.528 267.625H379.484Z" fill="white"/>
</svg>
