<svg width="180" height="180" viewBox="0 0 180 180" fill="none" xmlns="http://www.w3.org/2000/svg">
<rect width="180" height="180" rx="90" fill="black"/>
<path d="M30.6407 94.5833C29.6344 97.7083 26.8673 100.833 22.0456 100.833C16.5532 100.833 12.4024 96.6667 12.4024 90C12.4024 83.3333 16.5532 79.1667 22.0456 79.1667C25.7771 79.1667 29.1732 81.25 30.6407 85.2083H35.2527C34.0368 80 29.3829 75 22.0456 75C14.331 75 8 81.0417 8 90C8 98.9583 14.331 105 22.0456 105C29.9699 105 34.2464 99.1667 35.2527 94.5833H30.6407Z" fill="white"/>
<path d="M52.6721 105C60.3868 105 66.7178 98.9583 66.7178 90C66.7178 81.0417 60.3868 75 52.6721 75C44.9575 75 38.6265 81.0417 38.6265 90C38.6265 98.9583 44.9575 105 52.6721 105ZM52.6721 79.1667C58.1646 79.1667 62.3154 83.3333 62.3154 90C62.3154 96.6667 58.1646 100.833 52.6721 100.833C47.1797 100.833 43.0289 96.6667 43.0289 90C43.0289 83.3333 47.1797 79.1667 52.6721 79.1667Z" fill="white"/>
<path d="M71.7392 104.583H90.3968V100.417H76.1416V75.4167H71.7392V104.583Z" fill="white"/>
<path d="M105.491 105C113.205 105 119.536 98.9583 119.536 90C119.536 81.0417 113.205 75 105.491 75C97.776 75 91.445 81.0417 91.445 90C91.445 98.9583 97.776 105 105.491 105ZM105.491 79.1667C110.983 79.1667 115.134 83.3333 115.134 90C115.134 96.6667 110.983 100.833 105.491 100.833C99.9982 100.833 95.8474 96.6667 95.8474 90C95.8474 83.3333 99.9982 79.1667 105.491 79.1667Z" fill="white"/>
<path d="M124.558 104.583H128.96V94.1667L131.056 94.1667L141.538 104.583H147.198L136.717 94.1667H137.765C142.586 94.1667 146.36 90.4583 146.36 84.7917C146.36 79.125 142.586 75.4167 137.765 75.4167H124.558V104.583ZM128.96 90V79.5833H137.555C139.903 79.5833 141.957 81.6667 141.957 84.7917C141.957 87.9167 139.903 90 137.555 90L128.96 90Z" fill="white"/>
<path d="M150.359 95.625C150.359 100.833 154.552 105 161.889 105C169.227 105 173 101.25 173 96.4583C173 91.8333 170.317 89.375 164.405 88.3333L159.793 87.5C156.606 86.875 155.391 85.4167 155.391 83.5417C155.391 81.2083 157.487 79.1667 161.47 79.1667C165.663 79.1667 168.178 81.6667 168.178 84.375H172.581C172.581 79.1667 168.807 75 161.47 75C154.971 75 150.988 78.75 150.988 83.5417C150.988 87.5417 153.252 90.4167 157.906 91.25L163.566 92.2917C166.921 92.9167 168.598 94.3333 168.598 96.4583C168.598 98.9583 166.711 100.833 161.889 100.833C157.529 100.833 154.762 98.3333 154.762 95.625H150.359Z" fill="white"/>
</svg>
